<mxfile host="app.diagrams.net" agent="Mozilla/5.0 (Windows NT 10.0; Win64; x64) AppleWebKit/537.36 (KHTML, like Gecko) Chrome/132.0.0.0 Safari/537.36" version="26.0.12">
  <diagram name="페이지-1" id="UkVriVVctcWUTO8uht_-">
    <mxGraphModel dx="1434" dy="772" grid="1" gridSize="10" guides="1" tooltips="1" connect="1" arrows="1" fold="1" page="1" pageScale="1" pageWidth="827" pageHeight="1169" math="0" shadow="0">
      <root>
        <mxCell id="0" />
        <mxCell id="1" parent="0" />
        <mxCell id="BJa1_ftv66rLswiDpC5m-1" value="" style="rounded=1;whiteSpace=wrap;html=1;" vertex="1" parent="1">
          <mxGeometry x="239" y="120" width="60" height="150" as="geometry" />
        </mxCell>
        <mxCell id="BJa1_ftv66rLswiDpC5m-6" value="1:00:01" style="endArrow=classic;html=1;rounded=0;entryX=0;entryY=0.5;entryDx=0;entryDy=0;" edge="1" parent="1">
          <mxGeometry width="50" height="50" relative="1" as="geometry">
            <mxPoint x="159" y="155" as="sourcePoint" />
            <mxPoint x="239" y="155" as="targetPoint" />
            <mxPoint as="offset" />
          </mxGeometry>
        </mxCell>
        <mxCell id="BJa1_ftv66rLswiDpC5m-7" value="" style="endArrow=classic;html=1;rounded=0;entryX=0;entryY=0.5;entryDx=0;entryDy=0;" edge="1" parent="1">
          <mxGeometry width="50" height="50" relative="1" as="geometry">
            <mxPoint x="299" y="154.5" as="sourcePoint" />
            <mxPoint x="379" y="154.5" as="targetPoint" />
          </mxGeometry>
        </mxCell>
        <mxCell id="BJa1_ftv66rLswiDpC5m-8" value="" style="sketch=0;html=1;aspect=fixed;strokeColor=none;shadow=0;align=center;fillColor=#2D9C5E;verticalAlign=top;labelPosition=center;verticalLabelPosition=bottom;shape=mxgraph.gcp2.check" vertex="1" parent="1">
          <mxGeometry x="329" y="130" width="25" height="20" as="geometry" />
        </mxCell>
        <mxCell id="BJa1_ftv66rLswiDpC5m-10" value="" style="rounded=1;whiteSpace=wrap;html=1;" vertex="1" parent="1">
          <mxGeometry x="529" y="120" width="60" height="150" as="geometry" />
        </mxCell>
        <mxCell id="BJa1_ftv66rLswiDpC5m-18" value="1:00:30" style="endArrow=classic;html=1;rounded=0;entryX=0;entryY=0.5;entryDx=0;entryDy=0;" edge="1" parent="1">
          <mxGeometry width="50" height="50" relative="1" as="geometry">
            <mxPoint x="449" y="169" as="sourcePoint" />
            <mxPoint x="529" y="169" as="targetPoint" />
            <mxPoint as="offset" />
          </mxGeometry>
        </mxCell>
        <mxCell id="BJa1_ftv66rLswiDpC5m-20" value="" style="endArrow=classic;html=1;rounded=0;entryX=0;entryY=0.5;entryDx=0;entryDy=0;" edge="1" parent="1">
          <mxGeometry width="50" height="50" relative="1" as="geometry">
            <mxPoint x="589" y="169" as="sourcePoint" />
            <mxPoint x="669" y="169" as="targetPoint" />
          </mxGeometry>
        </mxCell>
        <mxCell id="BJa1_ftv66rLswiDpC5m-21" value="" style="sketch=0;html=1;aspect=fixed;strokeColor=none;shadow=0;align=center;fillColor=#2D9C5E;verticalAlign=top;labelPosition=center;verticalLabelPosition=bottom;shape=mxgraph.gcp2.check" vertex="1" parent="1">
          <mxGeometry x="619" y="146" width="25" height="20" as="geometry" />
        </mxCell>
        <mxCell id="BJa1_ftv66rLswiDpC5m-24" value="" style="rounded=1;whiteSpace=wrap;html=1;" vertex="1" parent="1">
          <mxGeometry x="239" y="420" width="60" height="150" as="geometry" />
        </mxCell>
        <mxCell id="BJa1_ftv66rLswiDpC5m-25" value="1:00:50" style="endArrow=classic;html=1;rounded=0;entryX=0;entryY=0.5;entryDx=0;entryDy=0;" edge="1" parent="1">
          <mxGeometry width="50" height="50" relative="1" as="geometry">
            <mxPoint x="159" y="504.5" as="sourcePoint" />
            <mxPoint x="239" y="504.5" as="targetPoint" />
            <mxPoint as="offset" />
          </mxGeometry>
        </mxCell>
        <mxCell id="BJa1_ftv66rLswiDpC5m-26" value="" style="endArrow=classic;html=1;rounded=0;entryX=0;entryY=0.5;entryDx=0;entryDy=0;" edge="1" parent="1">
          <mxGeometry width="50" height="50" relative="1" as="geometry">
            <mxPoint x="299" y="504.5" as="sourcePoint" />
            <mxPoint x="379" y="504.5" as="targetPoint" />
          </mxGeometry>
        </mxCell>
        <mxCell id="BJa1_ftv66rLswiDpC5m-28" value="" style="shape=mxgraph.mockup.markup.redX;fillColor=#ff0000;html=1;shadow=0;whiteSpace=wrap;strokeColor=none;" vertex="1" parent="1">
          <mxGeometry x="331.5" y="480.5" width="20" height="20" as="geometry" />
        </mxCell>
        <mxCell id="BJa1_ftv66rLswiDpC5m-36" value="1" style="ellipse;whiteSpace=wrap;html=1;aspect=fixed;rotation=0;gradientColor=#223548;strokeColor=none;gradientDirection=east;fillColor=#5b738b;rounded=0;pointerEvents=0;fontFamily=Helvetica;fontSize=16;fontColor=#FFFFFF;spacingTop=4;spacingBottom=4;spacingLeft=4;spacingRight=4;points=[];fontStyle=1" vertex="1" parent="1">
          <mxGeometry x="254" y="80" width="30" height="30" as="geometry" />
        </mxCell>
        <mxCell id="BJa1_ftv66rLswiDpC5m-37" value="2" style="ellipse;whiteSpace=wrap;html=1;aspect=fixed;rotation=0;gradientColor=#223548;strokeColor=none;gradientDirection=east;fillColor=#5b738b;rounded=0;pointerEvents=0;fontFamily=Helvetica;fontSize=16;fontColor=#FFFFFF;spacingTop=4;spacingBottom=4;spacingLeft=4;spacingRight=4;points=[];fontStyle=1" vertex="1" parent="1">
          <mxGeometry x="544" y="80" width="30" height="30" as="geometry" />
        </mxCell>
        <mxCell id="BJa1_ftv66rLswiDpC5m-38" value="3" style="ellipse;whiteSpace=wrap;html=1;aspect=fixed;rotation=0;gradientColor=#223548;strokeColor=none;gradientDirection=east;fillColor=#5b738b;rounded=0;pointerEvents=0;fontFamily=Helvetica;fontSize=16;fontColor=#FFFFFF;spacingTop=4;spacingBottom=4;spacingLeft=4;spacingRight=4;points=[];fontStyle=1" vertex="1" parent="1">
          <mxGeometry x="254" y="380" width="30" height="30" as="geometry" />
        </mxCell>
        <mxCell id="BJa1_ftv66rLswiDpC5m-39" value="4" style="ellipse;whiteSpace=wrap;html=1;aspect=fixed;rotation=0;gradientColor=#223548;strokeColor=none;gradientDirection=east;fillColor=#5b738b;rounded=0;pointerEvents=0;fontFamily=Helvetica;fontSize=16;fontColor=#FFFFFF;spacingTop=4;spacingBottom=4;spacingLeft=4;spacingRight=4;points=[];fontStyle=1" vertex="1" parent="1">
          <mxGeometry x="544" y="380" width="30" height="30" as="geometry" />
        </mxCell>
        <mxCell id="BJa1_ftv66rLswiDpC5m-43" value="1:00:01" style="text;html=1;align=center;verticalAlign=middle;whiteSpace=wrap;rounded=0;" vertex="1" parent="1">
          <mxGeometry x="239" y="125" width="60" height="30" as="geometry" />
        </mxCell>
        <mxCell id="BJa1_ftv66rLswiDpC5m-44" value="1:00:01" style="text;html=1;align=center;verticalAlign=middle;whiteSpace=wrap;rounded=0;" vertex="1" parent="1">
          <mxGeometry x="529" y="124.5" width="60" height="30" as="geometry" />
        </mxCell>
        <mxCell id="BJa1_ftv66rLswiDpC5m-45" value="1:00:30" style="text;html=1;align=center;verticalAlign=middle;whiteSpace=wrap;rounded=0;" vertex="1" parent="1">
          <mxGeometry x="529" y="154.5" width="60" height="30" as="geometry" />
        </mxCell>
        <mxCell id="BJa1_ftv66rLswiDpC5m-46" value="1:00:01" style="text;html=1;align=center;verticalAlign=middle;whiteSpace=wrap;rounded=0;" vertex="1" parent="1">
          <mxGeometry x="239" y="430" width="60" height="30" as="geometry" />
        </mxCell>
        <mxCell id="BJa1_ftv66rLswiDpC5m-47" value="1:00:30" style="text;html=1;align=center;verticalAlign=middle;whiteSpace=wrap;rounded=0;" vertex="1" parent="1">
          <mxGeometry x="239" y="460" width="60" height="30" as="geometry" />
        </mxCell>
        <mxCell id="BJa1_ftv66rLswiDpC5m-50" value="1:00:50" style="text;html=1;align=center;verticalAlign=middle;whiteSpace=wrap;rounded=0;" vertex="1" parent="1">
          <mxGeometry x="239" y="490" width="60" height="30" as="geometry" />
        </mxCell>
        <mxCell id="BJa1_ftv66rLswiDpC5m-51" value="" style="rounded=1;whiteSpace=wrap;html=1;" vertex="1" parent="1">
          <mxGeometry x="529" y="420" width="60" height="150" as="geometry" />
        </mxCell>
        <mxCell id="BJa1_ftv66rLswiDpC5m-52" value="1:01:40" style="endArrow=classic;html=1;rounded=0;entryX=0;entryY=0.5;entryDx=0;entryDy=0;" edge="1" parent="1">
          <mxGeometry width="50" height="50" relative="1" as="geometry">
            <mxPoint x="449" y="534.5" as="sourcePoint" />
            <mxPoint x="529" y="534.5" as="targetPoint" />
            <mxPoint as="offset" />
          </mxGeometry>
        </mxCell>
        <mxCell id="BJa1_ftv66rLswiDpC5m-53" value="" style="endArrow=classic;html=1;rounded=0;entryX=0;entryY=0.5;entryDx=0;entryDy=0;" edge="1" parent="1">
          <mxGeometry width="50" height="50" relative="1" as="geometry">
            <mxPoint x="589" y="534.5" as="sourcePoint" />
            <mxPoint x="669" y="534.5" as="targetPoint" />
          </mxGeometry>
        </mxCell>
        <mxCell id="BJa1_ftv66rLswiDpC5m-55" value="1:00:01" style="text;html=1;align=center;verticalAlign=middle;whiteSpace=wrap;rounded=0;fontStyle=0" vertex="1" parent="1">
          <mxGeometry x="529" y="430" width="60" height="30" as="geometry" />
        </mxCell>
        <mxCell id="BJa1_ftv66rLswiDpC5m-56" value="1:00:30" style="text;html=1;align=center;verticalAlign=middle;whiteSpace=wrap;rounded=0;" vertex="1" parent="1">
          <mxGeometry x="529" y="460" width="60" height="30" as="geometry" />
        </mxCell>
        <mxCell id="BJa1_ftv66rLswiDpC5m-57" value="1:00:50" style="text;html=1;align=center;verticalAlign=middle;whiteSpace=wrap;rounded=0;" vertex="1" parent="1">
          <mxGeometry x="529" y="490" width="60" height="30" as="geometry" />
        </mxCell>
        <mxCell id="BJa1_ftv66rLswiDpC5m-58" value="1:01:40" style="text;html=1;align=center;verticalAlign=middle;whiteSpace=wrap;rounded=0;" vertex="1" parent="1">
          <mxGeometry x="529" y="520" width="60" height="30" as="geometry" />
        </mxCell>
        <mxCell id="BJa1_ftv66rLswiDpC5m-59" value="" style="sketch=0;html=1;aspect=fixed;strokeColor=none;shadow=0;align=center;fillColor=#2D9C5E;verticalAlign=top;labelPosition=center;verticalLabelPosition=bottom;shape=mxgraph.gcp2.check" vertex="1" parent="1">
          <mxGeometry x="619" y="510" width="25" height="20" as="geometry" />
        </mxCell>
        <mxCell id="BJa1_ftv66rLswiDpC5m-60" value="" style="endArrow=none;html=1;rounded=0;" edge="1" parent="1">
          <mxGeometry width="50" height="50" relative="1" as="geometry">
            <mxPoint x="534" y="444.5" as="sourcePoint" />
            <mxPoint x="584" y="444.5" as="targetPoint" />
          </mxGeometry>
        </mxCell>
        <mxCell id="BJa1_ftv66rLswiDpC5m-62" value="" style="endArrow=none;html=1;rounded=0;" edge="1" parent="1">
          <mxGeometry width="50" height="50" relative="1" as="geometry">
            <mxPoint x="534" y="474.5" as="sourcePoint" />
            <mxPoint x="584" y="474.5" as="targetPoint" />
          </mxGeometry>
        </mxCell>
      </root>
    </mxGraphModel>
  </diagram>
</mxfile>
